<svg version="1.0" preserveAspectRatio="xMidYMid meet" viewBox="78 132.749996814 222 76.499998164" zoomAndPan="magnify" xmlns:xlink="http://www.w3.org/1999/xlink" xmlns="http://www.w3.org/2000/svg" style="max-height: 500px" width="222" height="76.499998164"><defs><g/></defs><g fill-opacity="1" fill="#ffffff"><g transform="translate(79.479377, 199.554202)"><g><path d="M 26.9375 -46.78125 C 33.0625 -46.78125 38.242188 -45.582031 42.484375 -43.1875 C 46.734375 -40.789062 48.859375 -37.078125 48.859375 -32.046875 L 32.828125 -32.046875 C 32.828125 -33.722656 32.078125 -34.910156 30.578125 -35.609375 C 29.535156 -36.179688 28.238281 -36.46875 26.6875 -36.46875 C 22.519531 -36.46875 20.4375 -35.488281 20.4375 -33.53125 C 20.4375 -32.425781 21.160156 -31.640625 22.609375 -31.171875 C 24.054688 -30.710938 26.425781 -30.226562 29.71875 -29.71875 C 33.757812 -29.132812 37.132812 -28.453125 39.84375 -27.671875 C 42.5625 -26.890625 44.929688 -25.503906 46.953125 -23.515625 C 48.972656 -21.523438 49.984375 -18.738281 49.984375 -15.15625 C 49.984375 -9.320312 47.800781 -5.160156 43.4375 -2.671875 C 39.082031 -0.191406 33.378906 1.046875 26.328125 1.046875 C 22.285156 1.046875 18.472656 0.484375 14.890625 -0.640625 C 11.316406 -1.773438 8.398438 -3.523438 6.140625 -5.890625 C 3.890625 -8.253906 2.765625 -11.257812 2.765625 -14.90625 L 18.796875 -14.90625 L 18.796875 -14.546875 C 18.859375 -12.585938 19.679688 -11.21875 21.265625 -10.4375 C 22.859375 -9.65625 24.546875 -9.265625 26.328125 -9.265625 C 31.128906 -9.265625 33.53125 -10.390625 33.53125 -12.640625 C 33.53125 -13.796875 32.773438 -14.632812 31.265625 -15.15625 C 29.765625 -15.675781 27.3125 -16.226562 23.90625 -16.8125 C 19.8125 -17.5 16.445312 -18.242188 13.8125 -19.046875 C 11.1875 -19.859375 8.890625 -21.234375 6.921875 -23.171875 C 4.960938 -25.109375 3.984375 -27.804688 3.984375 -31.265625 C 3.984375 -36.867188 6.101562 -40.851562 10.34375 -43.21875 C 14.59375 -45.59375 20.125 -46.78125 26.9375 -46.78125 Z M 26.9375 -46.78125"/></g></g></g><g fill-opacity="1" fill="#ffffff"><g transform="translate(127.459157, 199.554202)"><g><path d="M 27.8125 -46.78125 C 34.789062 -46.78125 40.472656 -45.609375 44.859375 -43.265625 C 49.253906 -40.929688 51.453125 -37.132812 51.453125 -31.875 L 51.453125 -14.03125 C 51.453125 -13.050781 51.679688 -12.242188 52.140625 -11.609375 C 52.609375 -10.972656 53.304688 -10.65625 54.234375 -10.65625 L 57.34375 -10.65625 L 57.34375 -0.6875 C 57.175781 -0.570312 56.726562 -0.382812 56 -0.125 C 55.28125 0.132812 54.253906 0.394531 52.921875 0.65625 C 51.597656 0.914062 50.070312 1.046875 48.34375 1.046875 C 44.988281 1.046875 42.226562 0.539062 40.0625 -0.46875 C 37.894531 -1.488281 36.410156 -2.890625 35.609375 -4.671875 C 33.410156 -2.941406 30.953125 -1.554688 28.234375 -0.515625 C 25.523438 0.523438 22.351562 1.046875 18.71875 1.046875 C 7.96875 1.046875 2.59375 -3.226562 2.59375 -11.78125 C 2.59375 -16.226562 3.789062 -19.617188 6.1875 -21.953125 C 8.582031 -24.296875 12.03125 -25.898438 16.53125 -26.765625 C 21.039062 -27.628906 26.9375 -28.0625 34.21875 -28.0625 L 34.21875 -30.3125 C 34.21875 -32.101562 33.59375 -33.460938 32.34375 -34.390625 C 31.101562 -35.316406 29.503906 -35.78125 27.546875 -35.78125 C 25.753906 -35.78125 24.207031 -35.460938 22.90625 -34.828125 C 21.613281 -34.191406 20.96875 -33.179688 20.96875 -31.796875 L 20.96875 -31.4375 L 3.984375 -31.4375 C 3.921875 -31.726562 3.890625 -32.132812 3.890625 -32.65625 C 3.890625 -36.988281 5.953125 -40.425781 10.078125 -42.96875 C 14.210938 -45.507812 20.125 -46.78125 27.8125 -46.78125 Z M 34.21875 -19.921875 C 29.3125 -19.921875 25.6875 -19.382812 23.34375 -18.3125 C 21.007812 -17.25 19.84375 -15.820312 19.84375 -14.03125 C 19.84375 -11.144531 21.804688 -9.703125 25.734375 -9.703125 C 27.984375 -9.703125 29.957031 -10.304688 31.65625 -11.515625 C 33.363281 -12.734375 34.21875 -14.238281 34.21875 -16.03125 Z M 34.21875 -19.921875"/></g></g></g><g fill-opacity="1" fill="#ffffff"><g transform="translate(180.288972, 199.554202)"><g><path d="M 5.796875 0 L 5.796875 -62.796875 L 23.046875 -62.796875 L 23.046875 0 Z M 5.796875 0"/></g></g></g><g fill-opacity="1" fill="#ffffff"><g transform="translate(204.191847, 199.554202)"><g><path d="M 38.375 0 L 37.25 -6.9375 C 35.457031 -4.445312 33.101562 -2.492188 30.1875 -1.078125 C 27.269531 0.335938 24.195312 1.046875 20.96875 1.046875 C 15.65625 1.046875 11.671875 -0.425781 9.015625 -3.375 C 6.359375 -6.320312 5.03125 -10.566406 5.03125 -16.109375 L 5.03125 -45.734375 L 22.265625 -45.734375 L 22.265625 -18.1875 C 22.265625 -16.226562 22.769531 -14.65625 23.78125 -13.46875 C 24.789062 -12.28125 26.21875 -11.6875 28.0625 -11.6875 C 30.195312 -11.6875 31.925781 -12.378906 33.25 -13.765625 C 34.582031 -15.160156 35.25 -16.867188 35.25 -18.890625 L 35.25 -45.734375 L 52.5 -45.734375 L 52.5 0 Z M 38.375 0"/></g></g></g><g fill-opacity="1" fill="#ffffff"><g transform="translate(257.021666, 199.554202)"><g><path d="M 35.6875 -45.734375 L 35.6875 -34.046875 L 25.984375 -34.046875 L 25.984375 -16.625 C 25.984375 -14.550781 26.328125 -13.035156 27.015625 -12.078125 C 27.710938 -11.128906 28.988281 -10.65625 30.84375 -10.65625 L 35.6875 -10.65625 L 35.6875 -0.515625 C 34.300781 -0.0546875 32.507812 0.316406 30.3125 0.609375 C 28.125 0.898438 26.21875 1.046875 24.59375 1.046875 C 19.519531 1.046875 15.609375 0.125 12.859375 -1.71875 C 10.117188 -3.570312 8.75 -6.722656 8.75 -11.171875 L 8.75 -34.046875 L 2.34375 -34.046875 L 2.34375 -45.734375 L 9.4375 -45.734375 L 13.171875 -59.59375 L 25.984375 -59.59375 L 25.984375 -45.734375 Z M 35.6875 -45.734375"/></g></g></g></svg>